# xmcd
#
# Track frame offsets:
#  150
#  11820
#  23100
#  35750
#  48397
#  58322
#  73800
#  86805
#  98197
#  111445
#  126562
#  138767
#  151965
#
# Disc length: 2189 seconds
#
# Revision: 0
# Processed by: cddbd v1.4PL0 Copyright (c) Steve Scherf et al.
# Submitted via: AltoMP3_Maker 3.0
#
DISCID=bf088b0d
DTITLE=Merle Haggard - Highlights From the Lonesome Fugitive - The Merle Haggard Anthology (1963-1977)
DYEAR=1900
DGENRE=
TTITLE0=Sing A Sad Song
TTITLE1=(My Friends Are Gonna Be) Strangers
TTITLE2=The Bottle Let Me Down
TTITLE3=Sing Me Back Home
TTITLE4=Mama Tried
TTITLE5=Hungry Eyes
TTITLE6=The fightin' Side Of Me
TTITLE7=Someday We'll Look Back
TTITLE8=Everybody's had The Blues
TTITLE9=It's Not Love (But It's Not Bad)
TTITLE10=If We Make It Through December
TTITLE11=A Working Man Can't Get Nowhere Today
TTITLE12=Okie From Muskogee
EXTD=
EXTT0=
EXTT1=
EXTT2=
EXTT3=
EXTT4=
EXTT5=
EXTT6=
EXTT7=
EXTT8=
EXTT9=
EXTT10=
EXTT11=
EXTT12=
PLAYORDER=
